<svg width="304.91559980154443" height="304.915625" viewBox="0 0 120 120.00000991689068" class="css-1j8o68f"><defs id="SvgjsDefs3420"></defs><g id="SvgjsG3421" featurekey="symbolFeature-0" transform="matrix(1.2998266940714431,0,0,1.2998266940714431,-4.991340591725991,-4.991334703572155)" fill="#0d0d0d"><title xmlns="http://www.w3.org/2000/svg">Artboard 5</title><path xmlns="http://www.w3.org/2000/svg" d="M66.08,44.41a3.21,3.21,0,0,1,0,2.9L50.61,76.93a2.39,2.39,0,0,1-4.49-1.47L49,57.89l-12.37-.57-.38,0a3.26,3.26,0,0,1-2.34-1.7,3.22,3.22,0,0,1,0-2.9L49.37,23.07a2.41,2.41,0,0,1,4.51,1.48L51,42.09l12.36.57.38,0A3.26,3.26,0,0,1,66.08,44.41ZM96.16,50A46.16,46.16,0,1,1,50,3.84,46.21,46.21,0,0,1,96.16,50Zm-9.53,0A36.63,36.63,0,1,0,50,86.63,36.67,36.67,0,0,0,86.63,50Z"></path></g><g id="SvgjsG3422" featurekey="nameFeature-0" transform="matrix(1,0,0,1,140,60)" fill="#f2eaea"><path d="     "></path></g></svg>