<svg width="374.40000000000003" height="112.19107189885773" viewBox="0 0 370 110.87258707953353" class="css-1j8o68f"><defs id="SvgjsDefs1483"></defs><g id="SvgjsG1484" featurekey="hmhgWD-0" transform="matrix(2.181786464174937,0,0,2.181786464174937,-5.360649379930667,0.9083653680016859)" fill="#ffffff"><g xmlns="http://www.w3.org/2000/svg"><path d="M45.396,49.845c-0.812-0.42-1.854-0.627-2.892-0.627s-2.002,0.207-2.894,0.627c-0.813,0.347-1.778,0.556-2.816,0.556   c-0.964,0-1.929-0.209-2.818-0.556c-0.889-0.42-1.854-0.627-2.892-0.627s-2.003,0.207-2.893,0.627   c-0.889,0.347-1.853,0.556-2.819,0.556c-1.037,0-2.001-0.209-2.817-0.556c-0.89-0.42-1.929-0.627-2.966-0.627   c-0.963,0-2.002,0.207-2.892,0.627c-0.817,0.347-1.78,0.556-2.818,0.556c-0.964,0-1.929-0.209-2.817-0.556   c-0.891-0.42-1.856-0.627-2.893-0.627c-1.038,0-2.001,0.207-2.893,0.627C4.387,50.191,3.423,50.4,2.457,50.4v-3.973   c0.966,0,1.93-0.208,2.818-0.555c0.892-0.42,1.855-0.632,2.893-0.632c1.037,0,2.002,0.212,2.893,0.632   c0.889,0.347,1.853,0.555,2.817,0.555c1.038,0,2.001-0.208,2.818-0.555c0.89-0.42,1.929-0.632,2.892-0.632   c1.037,0,2.076,0.212,2.966,0.632c0.816,0.347,1.78,0.555,2.817,0.555c0.967,0,1.931-0.208,2.819-0.555   c0.89-0.42,1.854-0.632,2.893-0.632s2.003,0.212,2.892,0.632c0.89,0.347,1.854,0.555,2.818,0.555c1.038,0,2.003-0.208,2.816-0.555   c0.892-0.42,1.855-0.632,2.894-0.632s2.079,0.212,2.892,0.632c0.891,0.347,1.854,0.555,2.893,0.555V50.4   C47.249,50.4,46.286,50.191,45.396,49.845z"></path></g><g xmlns="http://www.w3.org/2000/svg"><path d="M45.396,39.646c-0.812-0.42-1.854-0.626-2.892-0.626s-2.002,0.206-2.894,0.626c-0.518,0.222-1.111,0.358-1.731,0.449v-8   l3.935,2.454l0.169,0.091h0.091l0.209-0.042l0.077-0.091c0.147-0.172,0.087-0.396-0.051-0.556l-2.881-2.669   c-0.03-0.034-0.145-0.15-0.393-0.236c-0.22-0.077-0.818-0.159-1.156-0.202V30.57h-0.146l-0.029-5.501   c0.021-0.184-0.084-0.401-0.378-0.443c-0.209,0-0.337,0.167-0.392,0.344l-0.716,3.858c-0.01,0.03-0.055,0.196,0.005,0.456   c0.068,0.303,0.48,1.16,0.54,1.286h-0.03l-0.013-0.023l-0.032,0.023h-0.104v0.07l-4.594,3.165c-0.168,0.09-0.287,0.301-0.183,0.516   l0.186,0.209h0.165l3.776-1.615c0.031-0.008,0.193-0.066,0.373-0.262c0.069-0.076,0.172-0.223,0.276-0.383v7.911   c-0.894-0.028-1.784-0.212-2.608-0.535c-0.889-0.42-1.854-0.626-2.892-0.626s-2.003,0.206-2.893,0.626   c-0.503,0.197-1.034,0.334-1.572,0.429V21.982l5.358,7.693c0.024,0.025,0.227,0.243,0.476,0.243c0.078,0,0.15-0.021,0.219-0.065   c0.3-0.194,0.215-0.528,0.134-0.665L26.78,15.682c0.239-0.377,0.357-0.813,0.294-1.261c-0.038-0.278-0.149-0.53-0.299-0.759   c0.726-0.476,2.202-1.468,2.637-1.918c0.426-0.433,0.515-0.779,0.514-0.779l3.89-10.213c0.046-0.192,0.046-0.551-0.247-0.673   l-0.181-0.037c-0.298,0-0.446,0.301-0.446,0.302l-7.709,12.501c-0.587-0.003-1.173,0.222-1.537,0.707   c-0.119,0.157-0.183,0.336-0.245,0.513c-0.849-0.383-2.4-1.063-3.004-1.193c-0.469-0.104-0.966-0.036-0.967-0.035L8.378,14.857   c-0.194,0.062-0.51,0.248-0.462,0.563c0.052,0.292,0.307,0.398,0.566,0.398c0.001,0,0.003,0,0.005,0l15.285,0.043   c0.083,0.102,0.154,0.208,0.259,0.294h-0.056v23.909c-0.506-0.095-0.986-0.232-1.42-0.418c-0.89-0.42-1.929-0.626-2.966-0.626   c-0.963,0-2.002,0.206-2.892,0.626c-0.154,0.065-0.337,0.099-0.501,0.154V26.6c0.083-0.103,0.145-0.219,0.19-0.347l7.087-2.604   c0.209-0.054,0.396-0.25,0.347-0.525c-0.046-0.206-0.203-0.305-0.549-0.337l-5.538,0.915c-0.041,0.001-0.26,0.018-0.556,0.212   c-0.261,0.167-0.816,0.705-1.164,1.052c-0.153-0.12-0.325-0.217-0.529-0.25c-0.08-0.011-0.154,0.008-0.231,0.011l-5.171-5.42   c-0.024-0.032-0.157-0.187-0.366-0.187l-0.176,0.031l-0.067,0.047c-0.211,0.147-0.207,0.419-0.099,0.635l3.043,4.72   c0.018,0.036,0.125,0.234,0.417,0.42c0.242,0.165,0.894,0.438,1.35,0.622c-0.01,0.035-0.032,0.064-0.037,0.101   c-0.052,0.337,0.054,0.659,0.254,0.905l-2.103,7.701c-0.084,0.218-0.033,0.498,0.231,0.609l0.153,0.03   c0.253,0,0.413-0.235,0.457-0.309l1.642-3.453v8.934c-0.298,0.036-0.587,0.09-0.9,0.09c-0.964,0-1.929-0.21-2.817-0.558   c-0.891-0.42-1.856-0.626-2.893-0.626c-1.038,0-2.001,0.206-2.893,0.626c-0.889,0.348-1.853,0.558-2.818,0.558v3.972   c0.966,0,1.93-0.207,2.818-0.555c0.892-0.42,1.855-0.63,2.893-0.63c1.037,0,2.002,0.21,2.893,0.63   c0.889,0.348,1.853,0.555,2.817,0.555c1.038,0,2.001-0.207,2.818-0.555c0.89-0.42,1.929-0.63,2.892-0.63   c1.037,0,2.076,0.21,2.966,0.63c0.816,0.348,1.78,0.555,2.817,0.555c0.967,0,1.931-0.207,2.819-0.555   c0.89-0.42,1.854-0.63,2.893-0.63s2.003,0.21,2.892,0.63c0.89,0.348,1.854,0.555,2.818,0.555c1.038,0,2.003-0.207,2.816-0.555   c0.892-0.42,1.855-0.63,2.894-0.63s2.079,0.21,2.892,0.63c0.891,0.348,1.854,0.555,2.893,0.555v-3.972   C47.249,40.204,46.286,39.994,45.396,39.646z"></path></g></g><g id="SvgjsG1485" featurekey="1RRcwp-0" transform="matrix(3.4683680242463995,0,0,3.4683680242463995,119.30632705668943,10.189798469908613)" fill="#ffffff"><path d="M5.5 16 l5.4 0 l-0.7 4 l-10 0 l2.46 -14 l4.6 0 z M16.2 20 l-4.6 0 l2.46 -14 l4.6 0 z M30.2 20 l-4.8 0 l-1.32 -6.2 l-0.2 0 l-0.34 4.2 l-0.34 2 l-4.6 0 l2.46 -14 l4.8 0 l1.3 6.2 l0.2 0 l0.34 -4.2 l0.36 -2 l4.6 0 z M45.66 6 l-0.46 2.6 l-1.42 1.2 l-4.8 0 l-0.24 1.4 l4 0 l-0.64 3.6 l-4 0 l-0.24 1.4 l6 0 l-0.66 3.8 l-10.6 0 l2.46 -14 l10.6 0 z M56.5 20 l-4.8 0 l-1.32 -6.2 l-0.2 0 l-0.34 4.2 l-0.34 2 l-4.6 0 l2.46 -14 l4.8 0 l1.3 6.2 l0.2 0 l0.34 -4.2 l0.36 -2 l4.6 0 z M63.5 20 l-4.6 0 l2.46 -14 l8.4 0 c1.8 0 2.78 1.2 2.46 3 l-0.74 4.2 c-0.3 1.8 -1.72 3 -3.52 3 l-3.8 0 z M67.48 9.8 l-2.2 0 l-0.44 2.6 l2.2 0 z"></path></g></svg>