<svg width="396" height="103.14981095553162" viewBox="0 0 225.73768952459048 58.8" class="css-1j8o68f"><defs id="SvgjsDefs4670"></defs><g id="SvgjsG4671" featurekey="sloganFeature-0" transform="matrix(0.5783968661638301,0,0,0.5783968661638301,19.237682706748945,47.6161755823464)" fill="#111111"><path d="M3.0469 0.7029999999999994 l13.906 0 l0 2.9688 l-13.906 0 l0 -2.9688 z M3.0469 16.3281 l13.867 0 l0 2.9688 l-13.867 0 l0 -2.9688 z M3.0469 8.437 l12.539 0 l0 2.9297 l-12.539 0 l0 -2.9297 z M21.9141 19.29687 l3.2422 0 l0 -9.9609 l-3.2422 -4.5703 l0 14.531 z M34.882999999999996 0.7029999999999994 l0 12.852 l-9.1797 -12.852 l-3.5156 0 l13.203 18.594 l2.6953 0 l0 -18.594 l-3.2031 0 z M43.0469 0.7029999999999994 l13.906 0 l0 2.9688 l-13.906 0 l0 -2.9688 z M43.0469 16.3281 l13.867 0 l0 2.9688 l-13.867 0 l0 -2.9688 z M43.0469 8.437 l12.539 0 l0 2.9297 l-12.539 0 l0 -2.9297 z M77.89099999999999 19.29687 l-5.0391 -7.0313 c0.67707 -0.20832 1.276 -0.4557 1.7968 -0.74215 c0.57293 -0.36457 1.0417 -0.7682 1.4063 -1.2109 c0.41668 -0.4948 0.71617 -1.0287 0.89848 -1.6016 c0.23438 -0.625 0.35156 -1.3281 0.35156 -2.1094 c0 -0.91145 -0.15625 -1.7318 -0.46875 -2.4609 c-0.3125 -0.70313 -0.76824 -1.3151 -1.3672 -1.8359 c-0.57293 -0.4948 -1.3021 -0.88543 -2.1875 -1.1719 c-0.91145 -0.28645 -1.875 -0.42969 -2.8906 -0.42969 l-8.2813 0 l0 2.9688 l8.0078 0 c1.2239 0 2.1745 0.26043 2.8515 0.78125 s1.0156 1.3021 1.0156 2.3438 c0 0.96355 -0.33855 1.7188 -1.0156 2.2656 c-0.67707 0.57293 -1.6146 0.85938 -2.8125 0.85938 l-8.0469 0 l0 9.375 l3.2422 0 l0 -6.4844 l4.1016 0 l4.5703 6.4844 l3.8672 0 l0 0 z M90.938 11.4453 l6.9141 0 l0 -2.8906 l-6.9141 0 l0 2.8906 z M97.852 13.710899999999999 l-2.8907 0.000038147 l0 2.6563 l-2.8516 0 c-0.98957 0 -1.875 -0.15625 -2.6563 -0.46875 c-0.78125 -0.28645 -1.4714 -0.71613 -2.0703 -1.2891 c-0.54688 -0.59895 -0.97656 -1.276 -1.2891 -2.0312 c-0.3125 -0.72918 -0.46875 -1.5755 -0.46875 -2.5391 c0 -0.91145 0.15625 -1.7578 0.46875 -2.5391 c0.33855 -0.83332 0.76824 -1.5104 1.2891 -2.0312 c0.57293 -0.57293 1.263 -1.0287 2.0704 -1.3672 c0.78125 -0.3125 1.6667 -0.46875 2.6563 -0.46875 l5.7031 0.039063 l0 -2.9688 l-5.7031 -0.039063 c-1.4583 0 -2.7995 0.23438 -4.0234 0.70313 c-1.1979 0.46875 -2.2396 1.1198 -3.125 1.9531 c-0.85938 0.83332 -1.5495 1.8229 -2.0703 2.9687 c-0.46875 1.1198 -0.70313 2.3438 -0.70313 3.6719 s0.23438 2.5651 0.70313 3.7109 c0.52082 1.1979 1.2109 2.1875 2.0703 2.9688 c0.78125 0.78125 1.8229 1.4453 3.125 1.9922 c1.25 0.46875 2.5911 0.70313 4.0234 0.70313 l5.7422 0 l0 -5.625 z M111.641 8.437 l0 -7.7734 l-3.2813 0 l0 18.672 l3.2813 0 l0 -10.898 z M135.352 19.29687 l3.5156 0 l-6.7969 -18.633 l-3.5547 0 l3.9453 11.133 z M120.97656 19.29687 l3.4375 0 l4.0625 -9.9219 l-1.6797 -4.4531 z  M173.750375 19.29687 l-5.0391 -7.0313 c0.67707 -0.20832 1.276 -0.4557 1.7968 -0.74215 c0.57293 -0.36457 1.0417 -0.7682 1.4063 -1.2109 c0.41668 -0.4948 0.71617 -1.0287 0.89848 -1.6016 c0.23438 -0.625 0.35156 -1.3281 0.35156 -2.1094 c0 -0.91145 -0.15625 -1.7318 -0.46875 -2.4609 c-0.3125 -0.70313 -0.76824 -1.3151 -1.3672 -1.8359 c-0.57293 -0.4948 -1.3021 -0.88543 -2.1875 -1.1719 c-0.91145 -0.28645 -1.875 -0.42969 -2.8906 -0.42969 l-8.2813 0 l0 2.9688 l8.0078 0 c1.2239 0 2.1745 0.26043 2.8515 0.78125 s1.0156 1.3021 1.0156 2.3438 c0 0.96355 -0.33855 1.7188 -1.0156 2.2656 c-0.67707 0.57293 -1.6146 0.85938 -2.8125 0.85938 l-8.0469 0 l0 9.375 l3.2422 0 l0 -6.4844 l4.1016 0 l4.5703 6.4844 l3.8672 0 l0 0 z M178.906275 0.7029999999999994 l13.906 0 l0 2.9688 l-13.906 0 l0 -2.9688 z M178.906275 16.3281 l13.867 0 l0 2.9688 l-13.867 0 l0 -2.9688 z M178.906275 8.437 l12.539 0 l0 2.9297 l-12.539 0 l0 -2.9297 z M197.773475 19.29687 l3.2422 0 l0 -9.9609 l-3.2422 -4.5703 l0 14.531 z M210.742375 0.7029999999999994 l0 12.852 l-9.1797 -12.852 l-3.5156 0 l13.203 18.594 l2.6953 0 l0 -18.594 l-3.2031 0 z M224.531275 16.3281 c-0.39063 -0.078125 -0.75523 -0.19535 -1.0938 -0.3516 c-0.72918 -0.33855 -1.3672 -0.8073 -1.9141 -1.4063 c-0.52082 -0.54688 -0.9375 -1.2239 -1.25 -2.0313 c-0.28645 -0.8073 -0.42969 -1.6276 -0.42969 -2.4609 l0 -0.078125 l0 -0.11719 c0 -0.85938 0.14324 -1.6927 0.42969 -2.5 c0.33855 -0.83332 0.75523 -1.4974 1.25 -1.9922 c0.52082 -0.59895 1.1458 -1.0547 1.875 -1.3672 c0.4427 -0.20832 0.82031 -0.33852 1.1328 -0.39059 l0 -2.9297 c-0.91145 0.1302 -1.7188 0.35156 -2.4219 0.66406 c-1.1458 0.4948 -2.1224 1.1589 -2.9297 1.9922 s-1.4453 1.8229 -1.9141 2.9687 s-0.70313 2.3438 -0.70313 3.5938 l0 0.078125 l0 0.11719 c0 1.2761 0.23438 2.474 0.70313 3.5938 c0.41668 1.1198 1.0417 2.0964 1.875 2.9297 c0.83332 0.85938 1.8099 1.5234 2.9297 1.9922 c0.70313 0.3125 1.5234 0.53387 2.4609 0.66406 l0 -2.9688 z M235.156375 10 l0.000038147 -0.11719 c0 -1.2761 -0.23438 -2.474 -0.70313 -3.5938 c-0.46875 -1.1458 -1.1068 -2.1354 -1.9141 -2.9687 c-0.78125 -0.83332 -1.7448 -1.4844 -2.8906 -1.9531 c-0.65105 -0.3125 -1.4453 -0.53387 -2.3828 -0.66406 l0 2.9688 l0.46875 0.15625 c0.23438 0.078125 0.41668 0.14324 0.54688 0.19531 c0.72918 0.33855 1.3672 0.8073 1.9141 1.4063 c0.52082 0.54688 0.9375 1.2239 1.25 2.0313 c0.28645 0.8073 0.42969 1.6276 0.42969 2.4609 l0 0.078125 l0 0.11719 c0 0.85938 -0.14324 1.6927 -0.42969 2.5 c-0.33855 0.83332 -0.75523 1.4974 -1.25 1.9922 c-0.52082 0.59895 -1.1458 1.0547 -1.875 1.3672 c-0.33855 0.15625 -0.69012 0.27344 -1.0547 0.35156 l0 2.9688 c0.78125 -0.10418 1.5625 -0.32555 2.3438 -0.6641 c1.0677 -0.4427 2.0443 -1.1068 2.9297 -1.9922 c0.85938 -0.91145 1.4974 -1.901 1.9141 -2.9687 c0.46875 -1.1458 0.70313 -2.3438 0.70313 -3.5938 l0 -0.078125 z M240.351575 0.6640000000000015 l-3.5156 0 l6.7969 18.633 l3.5547 0 l-3.9453 -11.172 z M254.726375 0.6640000000000015 l-3.4375 0 l-4.0625 9.9219 l1.6797 4.4531 z M271.211375 19.29687 l3.5156 0 l-6.7969 -18.633 l-3.5547 0 l3.9453 11.133 z M256.835935 19.29687 l3.4375 0 l4.0625 -9.9219 l-1.6797 -4.4531 z M293.164375 12.5 c-0.1823 -0.4948 -0.44266 -0.92441 -0.78121 -1.289 c-0.23438 -0.26043 -0.61199 -0.55992 -1.1328 -0.89848 c-0.57293 -0.28645 -1.0807 -0.50781 -1.5234 -0.66406 c0.3125 -0.1823 0.65105 -0.39063 1.0156 -0.625 c0.36457 -0.3125 0.63801 -0.61199 0.82031 -0.89844 c0.23438 -0.3125 0.42969 -0.69012 0.58594 -1.1328 c0.15625 -0.46875 0.23438 -0.97656 0.23438 -1.5234 c0 -1.4583 -0.54688 -2.6172 -1.6406 -3.4766 s-2.5781 -1.2891 -4.4531 -1.2891 l-7.2266 0 l0 2.8906 l6.8359 0 c0.98957 0 1.7969 0.20832 2.4219 0.625 c0.54688 0.41668 0.82031 1.0156 0.82031 1.7969 c0 0.88543 -0.3125 1.5234 -0.9375 1.9141 c-0.65105 0.41668 -1.4974 0.625 -2.5391 0.625 l-6.6016 0 l0 2.7344 l7.3047 0 c1.25 0 2.2005 0.22137 2.8516 0.66406 c0.625 0.46875 0.9375 1.0938 0.9375 1.875 c0 0.83332 -0.3125 1.4713 -0.9375 1.914 c-0.65105 0.4427 -1.5234 0.66406 -2.6172 0.66406 l-7.5391 0 l0 2.8906 l7.5 0 c1.0156 0 1.9531 -0.11719 2.8125 -0.35156 c0.88543 -0.26043 1.6016 -0.58594 2.1484 -0.97656 s1.0156 -0.92449 1.4063 -1.6016 c0.3125 -0.625 0.46875 -1.3542 0.46875 -2.1875 c0 -0.65105 -0.078125 -1.2109 -0.23438 -1.6797 z M299.374975 0.7029999999999994 l3.2031 0 l0 15.625 l9.7656 0 l0 2.9688 l-12.969 0 l0 -18.594 z M318.906275 0.7029999999999994 l13.906 0 l0 2.9688 l-13.906 0 l0 -2.9688 z M318.906275 16.3281 l13.867 0 l0 2.9688 l-13.867 0 l0 -2.9688 z M318.906275 8.437 l12.539 0 l0 2.9297 l-12.539 0 l0 -2.9297 z"></path></g><g id="SvgjsG4672" featurekey="nameLeftFeature-0" transform="matrix(0.9680542181855446,0,0,0.9680542181855446,1.1939965601253348,1.6394012439310586)" fill="#111111"><path d="M7.0313 1.4059999999999988 l6.4063 0 l0 31.25 l19.531 0 l0 5.9375 l-25.938 0 l0 -37.188 z"></path></g><g id="SvgjsG4673" featurekey="inlineSymbolFeature-0" transform="matrix(1.1383783783783785,0,0,1.1383783783783785,29.107362766781367,-7.627137089291136)" fill="#111111"><path xmlns="http://www.w3.org/2000/svg" d="M19,43.7c-0.1,0-0.2,0-0.3-0.1C18.3,43.5,18,43,18,42.6L19.8,29h-4.8c-0.3,0-0.6-0.1-0.8-0.4c-0.2-0.2-0.3-0.5-0.2-0.8  l4.4-20.3c0.1-0.5,0.5-0.8,1-0.8L31.7,7c0.3,0,0.7,0.2,0.8,0.5s0.2,0.7,0,1L26,22h5.4c0.4,0,0.7,0.2,0.9,0.5c0.2,0.3,0.2,0.7,0,1  L19.9,43.2C19.7,43.5,19.4,43.7,19,43.7z M16.3,27H21c0.3,0,0.6,0.1,0.8,0.3s0.3,0.5,0.2,0.8l-1.3,10.2l9-14.3h-5.2  c-0.3,0-0.7-0.2-0.8-0.5s-0.2-0.7-0.1-1L30.1,9l-9.8-0.2L16.3,27z"></path></g><g id="SvgjsG4674" featurekey="nameRightFeature-0" transform="matrix(0.9680484587178003,0,0,0.9680484587178003,45.58892829369835,1.6389238495019167)" fill="#111111"><path d=" M35.54685 38.5937 l6.4844 0 l0 -19.922 l-6.4844 -9.1406 l0 29.063 z M61.48475 1.4059999999999988 l0 25.703 l-18.359 -25.703 l-7.0313 0 l26.406 37.188 l5.3906 0 l0 -37.188 l-6.4063 0 z M77.81255 1.4059999999999988 l27.813 0 l0 5.9375 l-27.813 0 l0 -5.9375 z M77.81255 32.6562 l27.734 0 l0 5.9375 l-27.734 0 l0 -5.9375 z M77.81255 16.875 l25.078 0 l0 5.8594 l-25.078 0 l0 -5.8594 z M115.54685 38.5937 l6.4844 0 l0 -19.922 l-6.4844 -9.1406 l0 29.063 z M141.48475 1.4059999999999988 l0 25.703 l-18.359 -25.703 l-7.0313 0 l26.406 37.188 l5.3906 0 l0 -37.188 l-6.4063 0 z M185.15675 8.75 c-0.67711 -1.4584 -1.6147 -2.7605 -2.8126 -3.9063 c-1.25 -1.0938 -2.7344 -1.9531 -4.4531 -2.5781 c-1.875 -0.57289 -3.8541 -0.85938 -5.9375 -0.85938 l-14.609 0 l0 5.8594 l14.063 0 c2.3438 0 4.2969 0.57289 5.8594 1.7188 c1.4584 1.0938 2.1875 2.7604 2.1875 5 c0 2.0313 -0.70313 3.6719 -2.1094 4.9219 c-1.5104 1.1979 -3.4895 1.7969 -5.9374 1.7969 l-14.063 0 l0 17.891 l6.4844 0 l0 -11.953 l7.3438 0 c1.9271 0 3.8802 -0.28648 5.8594 -0.85938 c1.8229 -0.57289 3.3854 -1.3802 4.6875 -2.4218 c1.3541 -1.0416 2.4219 -2.3698 3.2031 -3.9844 c0.78125 -1.5625 1.1719 -3.3854 1.1719 -5.4688 c0 -1.9791 -0.3125 -3.6979 -0.9375 -5.1563 z"></path></g></svg>