<svg width="264.63497370150935" height="304.915625" viewBox="0 0 300.00000000000006 345.663637048886" class="css-1j8o68f"><defs id="SvgjsDefs2006"></defs><g id="SvgjsG2007" featurekey="e7LhAk-0" transform="matrix(6.432694820558102,0,0,6.432694820558102,0.19463549477752906,-43.09906634019179)" fill="#ff8675"><path xmlns="http://www.w3.org/2000/svg" d="M19,43.7c-0.1,0-0.2,0-0.3-0.1C18.3,43.5,18,43,18,42.6L19.8,29h-4.8c-0.3,0-0.6-0.1-0.8-0.4c-0.2-0.2-0.3-0.5-0.2-0.8  l4.4-20.3c0.1-0.5,0.5-0.8,1-0.8L31.7,7c0.3,0,0.7,0.2,0.8,0.5s0.2,0.7,0,1L26,22h5.4c0.4,0,0.7,0.2,0.9,0.5c0.2,0.3,0.2,0.7,0,1  L19.9,43.2C19.7,43.5,19.4,43.7,19,43.7z M16.3,27H21c0.3,0,0.6,0.1,0.8,0.3s0.3,0.5,0.2,0.8l-1.3,10.2l9-14.3h-5.2  c-0.3,0-0.7-0.2-0.8-0.5s-0.2-0.7-0.1-1L30.1,9l-9.8-0.2L16.3,27z"></path></g><g id="SvgjsG2008" featurekey="Qg0WB5-0" transform="matrix(4.049128803395199,0,0,4.049128803395199,-5.101902253662449,248.88946019236081)" fill="#ffffff"><path d="M1.26 5.58 q0 -0.18 0.12 -0.31 t0.33 -0.13 l2.96 0 q0.17 0 0.31 0.12 t0.15 0.32 l0 10.88 l5.5 0 q0.18 0 0.31 0.12 t0.13 0.33 l0 2.63 q0 0.17 -0.115 0.31 t-0.325 0.15 l-8.93 0 q-0.44 0 -0.44 -0.44 l0 -13.98 z M12.98 8.08 q0 -0.32 0.18 -0.55 t0.56 -0.23 l2.29 0 q0.12 0 0.26 0.055 t0.26 0.16 t0.205 0.245 t0.085 0.32 l0 11.15 q0 0.38 -0.21 0.575 t-0.6 0.195 l-2.29 0 q-0.74 0 -0.74 -0.77 l0 -11.15 z M12.98 3.0199999999999996 q0 -0.42 0.18 -0.595 t0.56 -0.175 l2.32 0 q0.35 0 0.565 0.175 t0.215 0.595 l0 1.95 q0 0.12 -0.055 0.26 t-0.155 0.27 t-0.245 0.215 t-0.325 0.085 l-2.32 0 q-0.74 0 -0.74 -0.83 l0 -1.95 z M19.480000000000004 7.470000000000001 q0.13 -0.11 0.275 -0.14 t0.275 -0.03 l1.51 0 q0.18 0 0.31 0.065 t0.22 0.175 t0.145 0.25 t0.105 0.29 l0.31 1.28 q0.15 -0.31 0.435 -0.705 t0.725 -0.74 t1.045 -0.58 t1.405 -0.235 q1.14 0 2.07 0.44 t1.585 1.2 t1.015 1.775 t0.36 2.165 l0 6.55 q0 0.38 -0.165 0.575 t-0.525 0.195 l-2.31 0 q-0.43 0 -0.59 -0.145 t-0.16 -0.565 l0 -6.51 q0 -0.43 -0.195 -0.815 t-0.515 -0.68 t-0.725 -0.465 t-0.825 -0.17 q-0.36 0 -0.735 0.16 t-0.69 0.445 t-0.53 0.67 t-0.245 0.835 l0 6.5 q0 0.17 -0.065 0.34 t-0.195 0.26 q-0.13 0.08 -0.245 0.11 t-0.265 0.03 l-2.26 0 q-0.43 0 -0.62 -0.21 t-0.19 -0.56 l0 -11.19 q0 -0.19 0.085 -0.35 t0.235 -0.25 z M44.11 18.48 q-0.88 0.81 -1.98 1.265 t-2.33 0.455 q-1.37 0 -2.59 -0.5 t-2.14 -1.385 t-1.46 -2.085 t-0.54 -2.61 q0 -0.88 0.215 -1.705 t0.61 -1.545 t0.96 -1.325 t1.265 -1.035 t1.52 -0.67 t1.73 -0.24 q0.83 0 1.61 0.22 t1.465 0.62 t1.255 0.96 t0.98 1.225 t0.635 1.42 t0.225 1.555 q0 0.52 -0.015 0.85 t-0.155 0.525 t-0.465 0.27 t-0.955 0.075 l-7.2 0 q0.1 0.64 0.405 1.07 t0.705 0.685 t0.85 0.365 t0.85 0.11 q0.36 0 0.74 -0.075 t0.735 -0.2 t0.65 -0.29 t0.475 -0.345 q0.16 -0.13 0.275 -0.195 t0.245 -0.065 t0.265 0.09 t0.305 0.26 l1.06 1.2 q0.11 0.13 0.14 0.235 t0.03 0.215 q0 0.2 -0.11 0.345 t-0.26 0.255 z M39.300000000000004 10.15 q-0.39 0 -0.755 0.155 t-0.685 0.415 t-0.575 0.59 t-0.415 0.67 l5.11 0 q-0.21 -0.39 -0.455 -0.72 t-0.56 -0.58 t-0.72 -0.39 t-0.945 -0.14 z M47.89000000000001 7.470000000000001 q0.13 -0.11 0.275 -0.14 t0.275 -0.03 l1.51 0 q0.18 0 0.31 0.065 t0.22 0.175 t0.145 0.25 t0.105 0.29 l0.31 1.28 q0.15 -0.31 0.435 -0.705 t0.725 -0.74 t1.045 -0.58 t1.405 -0.235 q1.14 0 2.07 0.44 t1.585 1.2 t1.015 1.775 t0.36 2.165 l0 6.55 q0 0.38 -0.165 0.575 t-0.525 0.195 l-2.31 0 q-0.43 0 -0.59 -0.145 t-0.16 -0.565 l0 -6.51 q0 -0.43 -0.195 -0.815 t-0.515 -0.68 t-0.725 -0.465 t-0.825 -0.17 q-0.36 0 -0.735 0.16 t-0.69 0.445 t-0.53 0.67 t-0.245 0.835 l0 6.5 q0 0.17 -0.065 0.34 t-0.195 0.26 q-0.13 0.08 -0.245 0.11 t-0.265 0.03 l-2.26 0 q-0.43 0 -0.62 -0.21 t-0.19 -0.56 l0 -11.19 q0 -0.19 0.085 -0.35 t0.235 -0.25 z M62.34000000000001 7.42 q0.13 -0.11 0.27 -0.14 t0.27 -0.03 l1.51 0 q0.19 0 0.315 0.06 t0.205 0.165 t0.135 0.24 t0.105 0.295 l0.42 1.21 q0.28 -0.36 0.565 -0.735 t0.675 -0.68 t0.93 -0.505 t1.32 -0.2 q1.37 0 2.525 0.505 t1.99 1.39 t1.305 2.08 t0.47 2.585 q0 1.38 -0.47 2.58 t-1.305 2.085 t-1.99 1.395 t-2.525 0.51 q-0.65 0 -1.12 -0.155 t-0.835 -0.405 t-0.645 -0.55 t-0.55 -0.6 l0 4.66 q0 0.3 -0.18 0.51 t-0.56 0.21 l-2.29 0 q-0.12 0 -0.26 -0.05 t-0.26 -0.14 t-0.2 -0.225 t-0.08 -0.305 l0 -15.19 q0 -0.2 0.075 -0.33 t0.185 -0.24 z M71.68 13.66 q0 -0.64 -0.21 -1.215 t-0.59 -1.005 t-0.91 -0.68 t-1.17 -0.25 q-0.63 0 -1.195 0.235 t-0.99 0.64 t-0.69 0.955 t-0.295 1.17 l0 0.15 q0 0.66 0.25 1.24 t0.68 1.005 t1.01 0.675 t1.23 0.25 q0.64 0 1.17 -0.25 t0.91 -0.675 t0.59 -1.005 t0.21 -1.24 z"></path></g></svg>