<svg width="21" height="24" style="stroke: #000;" viewBox="0 0 21 24" fill="none" xmlns="http://www.w3.org/2000/svg" class="QUG47gVjqD216Acwn73g" aria-describedby="map-icon-title"><title id="map-icon-title">View what's happening around the world on Snapchat</title><mask id="path-1-outside-1_801_29713" maskUnits="userSpaceOnUse" x="-0.0715942" y="0" width="21" height="24" fill="black"><rect fill="white" x="-0.0715942" width="21" height="24"></rect><path fill-rule="evenodd" clip-rule="evenodd" d="M10.0697 21.6968C10.33 21.8853 10.6696 21.8853 10.93 21.6968C12.667 20.4394 19.0713 15.4681 19.0713 10.5291C19.0713 5.8186 15.2337 2 10.4998 2C5.76596 2 1.92841 5.8186 1.92841 10.5291C1.92841 15.4681 8.3327 20.4394 10.0697 21.6968Z"></path></mask><path fill-rule="evenodd" clip-rule="evenodd" d="M10.0697 21.6968C10.33 21.8853 10.6696 21.8853 10.93 21.6968C12.667 20.4394 19.0713 15.4681 19.0713 10.5291C19.0713 5.8186 15.2337 2 10.4998 2C5.76596 2 1.92841 5.8186 1.92841 10.5291C1.92841 15.4681 8.3327 20.4394 10.0697 21.6968Z" class="DZEMpnxZuhga5Ilolp3b"></path><path d="M10.93 21.6968L9.95068 20.3441L10.93 21.6968ZM10.0697 21.6968L11.049 20.3441L10.0697 21.6968ZM11.9093 23.0496C12.8199 22.3904 14.9615 20.7541 16.8925 18.6116C18.7621 16.5372 20.7413 13.6556 20.7413 10.5291H17.4013C17.4013 12.3416 16.1783 14.4151 14.4115 16.3755C12.7061 18.2677 10.7771 19.7458 9.95068 20.3441L11.9093 23.0496ZM20.7413 10.5291C20.7413 4.88849 16.1482 0.33 10.4998 0.33V3.67C14.3192 3.67 17.4013 6.7487 17.4013 10.5291H20.7413ZM10.4998 0.33C4.85146 0.33 0.258406 4.88849 0.258406 10.5291H3.59841C3.59841 6.7487 6.68047 3.67 10.4998 3.67V0.33ZM0.258406 10.5291C0.258406 13.6556 2.23758 16.5372 4.10716 18.6116C6.03814 20.7541 8.17981 22.3904 9.09039 23.0496L11.049 20.3441C10.2226 19.7458 8.29361 18.2677 6.5882 16.3755C4.82138 14.4151 3.59841 12.3416 3.59841 10.5291H0.258406ZM9.95068 20.3441C10.2747 20.1096 10.725 20.1096 11.049 20.3441L9.09039 23.0496C9.93509 23.6611 11.0646 23.6611 11.9093 23.0496L9.95068 20.3441Z" class="TDDPdWZbOExCmN4MwmsA" mask="url(#path-1-outside-1_801_29713)"></path><path d="M10.4998 13.335C12.0656 13.335 13.3348 12.0657 13.3348 10.5C13.3348 8.93427 12.0656 7.665 10.4998 7.665C8.93411 7.665 7.66483 8.93427 7.66483 10.5C7.66483 12.0657 8.93411 13.335 10.4998 13.335Z" class="WDMSe6KFDspsZNbpH62J e_9v3GQS9ynfxFEXqDmk" stroke-width="1.67" stroke-linejoin="round"></path></svg>