<svg width="25" height="24" viewBox="0 0 25 24" fill="none"  style="stroke: #000;" xmlns="http://www.w3.org/2000/svg" class="QUG47gVjqD216Acwn73g" aria-describedby="lens-icon-title"><title id="lens-icon-title">Try out Lenses and Filters on Snapchat</title><circle cx="12.5" cy="12" r="11" stroke="black" stroke-width="2" class="DZEMpnxZuhga5Ilolp3b WDMSe6KFDspsZNbpH62J"></circle><path d="M9.64585 18.4148C9.31179 18.4148 9.1377 18.2158 9.03889 17.9197C8.74091 17.0157 8.41939 16.1117 8.13395 15.2077C8.04769 14.9226 7.91125 14.7738 7.62581 14.6751C6.73341 14.4025 5.84101 14.0813 4.94862 13.7961C4.63809 13.6974 4.40283 13.5486 4.40283 13.1898C4.40283 12.831 4.65063 12.6822 4.94862 12.5835C5.84101 12.2984 6.73341 11.9897 7.62581 11.7046C7.8987 11.6184 8.03515 11.4946 8.12141 11.2095C8.40685 10.3055 8.72836 9.40152 9.02635 8.49752C9.12515 8.18732 9.29924 7.96484 9.64585 7.96484C9.96893 7.97738 10.1289 8.19985 10.2293 8.48499C10.5147 9.36392 10.8237 10.2303 11.0966 11.1233C11.1954 11.457 11.382 11.6184 11.7035 11.7171C12.5708 11.9897 13.4397 12.2874 14.307 12.571C14.6175 12.6697 14.8528 12.831 14.8528 13.1773C14.8528 13.5235 14.6175 13.6849 14.307 13.7836C13.4021 14.0938 12.5097 14.4025 11.6173 14.6876C11.3318 14.7738 11.1954 14.9226 11.0966 15.2077C10.8237 16.0992 10.5022 16.9907 10.2167 17.8821C10.1305 18.1673 9.96893 18.3897 9.64585 18.4148Z" class="apiGgwq2Ve9BSxajNchZ"></path><path d="M15.4459 11.4491C15.2234 11.4491 15.108 11.3174 15.0404 11.1198C14.8427 10.5173 14.6268 9.91482 14.4372 9.31232C14.3795 9.12301 14.2889 9.02424 14.0994 8.95674C13.5044 8.77566 12.9094 8.56001 12.3144 8.3707C12.1084 8.30486 11.9502 8.20608 11.9502 7.96574C11.9502 7.72705 12.115 7.62828 12.3144 7.56078C12.9094 7.37147 13.5044 7.16405 14.0994 6.97474C14.2806 6.91712 14.3713 6.83482 14.429 6.6455C14.6185 6.043 14.8344 5.4405 15.0322 4.838C15.0981 4.63222 15.2135 4.48242 15.4459 4.48242C15.6601 4.49065 15.7689 4.63881 15.8348 4.82812C16.0244 5.41416 16.232 5.99197 16.4133 6.58624C16.4793 6.80848 16.6029 6.91548 16.8188 6.98297C17.3973 7.16405 17.9758 7.36324 18.5526 7.55255C18.7586 7.6184 18.9168 7.7254 18.9168 7.95751C18.9168 8.18798 18.7603 8.29498 18.5526 8.36247C17.9494 8.56824 17.3544 8.77566 16.7594 8.96497C16.5699 9.02259 16.4793 9.12136 16.4117 9.31067C16.2304 9.90494 16.0145 10.4992 15.8249 11.0935C15.7673 11.2844 15.6601 11.4326 15.4459 11.4491Z" class="apiGgwq2Ve9BSxajNchZ"></path><path d="M16.6013 18.4159C16.4532 18.4159 16.3762 18.3271 16.3317 18.1954C16.1999 17.7943 16.0562 17.3917 15.9302 16.9906C15.8917 16.8633 15.831 16.7982 15.705 16.7538C15.308 16.6324 14.9125 16.4904 14.5154 16.3631C14.3776 16.3187 14.2725 16.2535 14.2725 16.0937C14.2725 15.9339 14.3821 15.8687 14.5154 15.8243C14.9125 15.697 15.308 15.5609 15.705 15.4336C15.8265 15.3951 15.8873 15.3403 15.9258 15.2131C16.0532 14.812 16.1954 14.4094 16.3273 14.0083C16.3717 13.8706 16.4488 13.7715 16.6028 13.7715C16.7465 13.7774 16.8176 13.8766 16.8621 14.0024C16.9895 14.3931 17.1258 14.7779 17.2473 15.1746C17.2917 15.3226 17.3747 15.3951 17.5169 15.438C17.9021 15.5594 18.2887 15.6911 18.6739 15.8184C18.8117 15.8628 18.9169 15.9339 18.9169 16.0878C18.9169 16.2417 18.8117 16.3127 18.6739 16.3571C18.2724 16.4948 17.8754 16.6324 17.4784 16.7582C17.351 16.7967 17.2917 16.8633 17.2473 16.9891C17.1258 17.3858 16.9836 17.781 16.8562 18.1776C16.8162 18.3064 16.7436 18.4056 16.6013 18.4159Z" class="apiGgwq2Ve9BSxajNchZ" ></path></svg>