<svg width="374.40000000000003" height="101.18919755154025" viewBox="0 0 370 100.00000826407556" class="css-1j8o68f"><defs id="SvgjsDefs1605"></defs><g id="SvgjsG1606" featurekey="symbolFeature-0" transform="matrix(1.0831889117262026,0,0,1.0831889117262026,-4.159450493104993,-4.159445586310129)" fill="#111111"><title xmlns="http://www.w3.org/2000/svg">Artboard 5</title><path xmlns="http://www.w3.org/2000/svg" d="M66.08,44.41a3.21,3.21,0,0,1,0,2.9L50.61,76.93a2.39,2.39,0,0,1-4.49-1.47L49,57.89l-12.37-.57-.38,0a3.26,3.26,0,0,1-2.34-1.7,3.22,3.22,0,0,1,0-2.9L49.37,23.07a2.41,2.41,0,0,1,4.51,1.48L51,42.09l12.36.57.38,0A3.26,3.26,0,0,1,66.08,44.41ZM96.16,50A46.16,46.16,0,1,1,50,3.84,46.21,46.21,0,0,1,96.16,50Zm-9.53,0A36.63,36.63,0,1,0,50,86.63,36.67,36.67,0,0,0,86.63,50Z"></path></g><g id="SvgjsG1607" featurekey="nameFeature-0" transform="matrix(1.099648238743942,0,0,1.099648238743942,112.26881144160367,28.539667063441193)" fill="#111111"><path d="M7.0313 1.4059999999999988 l6.4063 0 l0 31.25 l19.531 0 l0 5.9375 l-25.938 0 l0 -37.188 z M63.281 16.875 l0 -15.547 l-6.5625 0 l0 37.344 l6.5625 0 l0 -21.797 z M83.8281 38.5937 l6.4844 0 l0 -19.922 l-6.4844 -9.1406 l0 29.063 z M109.76599999999999 1.4059999999999988 l0 25.703 l-18.359 -25.703 l-7.0313 0 l26.406 37.188 l5.3906 0 l0 -37.188 l-6.4063 0 z M126.0938 1.4059999999999988 l27.813 0 l0 5.9375 l-27.813 0 l0 -5.9375 z M126.0938 32.6562 l27.734 0 l0 5.9375 l-27.734 0 l0 -5.9375 z M126.0938 16.875 l25.078 0 l0 5.8594 l-25.078 0 l0 -5.8594 z M163.8281 38.5937 l6.4844 0 l0 -19.922 l-6.4844 -9.1406 l0 29.063 z M189.766 1.4059999999999988 l0 25.703 l-18.359 -25.703 l-7.0313 0 l26.406 37.188 l5.3906 0 l0 -37.188 l-6.4063 0 z M233.438 8.75 c-0.67711 -1.4584 -1.6147 -2.7605 -2.8126 -3.9063 c-1.25 -1.0938 -2.7344 -1.9531 -4.4531 -2.5781 c-1.875 -0.57289 -3.8541 -0.85938 -5.9375 -0.85938 l-14.609 0 l0 5.8594 l14.063 0 c2.3438 0 4.2969 0.57289 5.8594 1.7188 c1.4584 1.0938 2.1875 2.7604 2.1875 5 c0 2.0313 -0.70313 3.6719 -2.1094 4.9219 c-1.5104 1.1979 -3.4895 1.7969 -5.9374 1.7969 l-14.063 0 l0 17.891 l6.4844 0 l0 -11.953 l7.3438 0 c1.9271 0 3.8802 -0.28648 5.8594 -0.85938 c1.8229 -0.57289 3.3854 -1.3802 4.6875 -2.4218 c1.3541 -1.0416 2.4219 -2.3698 3.2031 -3.9844 c0.78125 -1.5625 1.1719 -3.3854 1.1719 -5.4688 c0 -1.9791 -0.3125 -3.6979 -0.9375 -5.1563 z"></path></g></svg>